<?xml version="1.0" standalone="no"?><!DOCTYPE svg PUBLIC "-//W3C//DTD SVG 1.1//EN" "http://www.w3.org/Graphics/SVG/1.1/DTD/svg11.dtd"><svg t="1534845385583" class="icon" style="" viewBox="0 0 1024 1024" version="1.1" xmlns="http://www.w3.org/2000/svg" p-id="1267" xmlns:xlink="http://www.w3.org/1999/xlink" width="200" height="200"><defs><style type="text/css"></style></defs><path d="M148.75601309 996.81321298a48.3294288 48.3294288 0 0 1-48.32942881-48.32942882V777.77043322a48.3294288 48.3294288 0 1 1 96.76932487 0v170.65811732a48.3294288 48.3294288 0 0 1-48.43989606 48.38466244zM370.62951653 996.81321298a48.3294288 48.3294288 0 0 1-48.3294288-48.32942882V591.522623a48.3294288 48.3294288 0 1 1 96.76932487 0v356.90592754a48.3294288 48.3294288 0 0 1-48.43989607 48.38466244zM592.59967884 996.81321298a48.3294288 48.3294288 0 0 1-48.3294288-48.32942882V649.2555778a48.3294288 48.3294288 0 0 1 96.76932487 0v299.17297274a48.3294288 48.3294288 0 0 1-48.43989607 48.38466244zM814.56984115 996.81321298a48.3294288 48.3294288 0 0 1-48.32942881-48.32942882V471.4170882a48.3294288 48.3294288 0 0 1 96.76932488 0v477.01146234a48.3294288 48.3294288 0 0 1-48.43989607 48.38466244zM148.75601309 595.77561274a48.3294288 48.3294288 0 0 1-40.54148657-74.74491375l183.78991355-282.25767265a107.056589 107.056589 0 0 1 162.7182826-19.84268262l122.46677259 114.33362015 15.31352473-1.5051165L775.45062062 79.79682238a48.3294288 48.3294288 0 0 1 78.23844104 56.89064192L670.79669466 388.63568087a106.79422925 106.79422925 0 0 1-76.44334797 43.66218683c-30.24041403 3.68684499-60.95031393-7.37368999-83.25089322-28.3486621l-122.37011374-114.33362015-15.58969289 1.89175194-183.84514719 282.24386421a48.24657835 48.24657835 0 0 1-40.54148656 22.02441114z" fill="#1296db" p-id="1268"></path><path d="M875.24398691 264.66379179a48.3294288 48.3294288 0 0 1-48.32942881-48.32942882V123.98372874h-92.37825106a48.3294288 48.3294288 0 1 1 0-96.76932489h140.70767987a48.3294288 48.3294288 0 0 1 48.32942881 48.3294288v140.70767986a48.3294288 48.3294288 0 0 1-48.32942881 48.41227928z" fill="#1296db" p-id="1269"></path></svg>