<?xml version="1.0" standalone="no"?><!DOCTYPE svg PUBLIC "-//W3C//DTD SVG 1.1//EN" "http://www.w3.org/Graphics/SVG/1.1/DTD/svg11.dtd"><svg t="1534845369869" class="icon" style="" viewBox="0 0 1024 1024" version="1.1" xmlns="http://www.w3.org/2000/svg" p-id="871" xmlns:xlink="http://www.w3.org/1999/xlink" width="200" height="200"><defs><style type="text/css"></style></defs><path d="M631.88718933 541.07144596c0 70.03581503-8.15041296 83.3889773-82.08408272 126.80649641-68.71538599 40.30803817-144.27499583-56.77068137-144.27499584-126.80649641 0-70.01898604 64.58710345-126.79096194 144.27499584-126.79096193 79.65552893 0 82.08408272 56.7719759 82.08408272 126.79096193" fill="#1296db" p-id="872"></path><path d="M771.28177588 170.28720514c-22.83953872-91.28177715-109.27974274-119.62957621-152.74386521-121.7836879-8.52712359-0.0608433-16.88854629 2.70170137-23.06478838 8.65010472a31.04302775 31.04302775 0 0 0-9.54721975 22.70231768l0.44920478 44.98649947-0.96184193 295.86542744c-30.58217213-23.37936118-70.14585078-37.50665733-113.30834584-37.50665734-96.68388535 0-175.35427067 70.82418883-175.35427066 157.87153129 0 87.06287692 78.6703853 157.8883603 175.35427066 157.8883603 96.6683509 0 175.32449627-70.82548338 175.32449627-157.8883603 0-3.86419675-0.16181728-7.69473549-0.46732832-11.49161623 0.16828997-1.28677104 0.26538035-2.59554924 0.27055851-3.92633458l1.01232892-311.4335447h94.11163782c0.19676981-0.01423991 0.4090741 0 0.6226729 0 17.16298841 0 31.08056937-13.91628642 31.08056937-31.07927482 0-4.58396002-0.98643817-8.93878676-2.77807914-12.85476503zM472.10362501 636.79737299c-62.4174573 0-113.19442647-42.94630717-113.19442647-95.72592703s50.77696916-95.71168711 113.19442647-95.71168711c62.40192285 0 113.16465209 42.93206723 113.16465209 95.71168711s-50.76272925 95.72592703-113.16465209 95.72592703z m176.71094676-484.73597219l-0.2809148-27.20989991 0.02200715-6.64227588c15.59530256 5.81765499 33.59326815 16.02508926 46.86357997 33.85217579h-46.60467232z" fill="#1296db" p-id="873"></path><path d="M828.8524819 945.62112853h-627.7992802c-67.74448229 0-123.01349925-54.47934862-124.30285939-121.91961442L18.00419555 417.57378939c-2.45832818-16.98175305 9.31808649-32.74922919 26.31407946-35.20755737 16.75391431-2.53470594 32.73498928 9.30255202 35.20755736 26.31407945l59.3662306 412.62371777c0 34.28196251 27.87788169 62.15984418 62.1598442 62.15984418h627.79928019c34.27937343 0 62.15854965-27.87658715 62.15854965-62.15984418l0.31845641-4.44673897 59.06330864-408.17827334c2.45832818-17.01152743 18.2724077-28.84749085 35.20755737-26.31407945 16.99599297 2.45832818 28.77240763 18.22580432 26.31278492 35.20755737l-58.75909216 406.12901926c-1.28806558 67.44026579-56.55708255 121.91961442-124.30027029 121.91961442z" fill="#1296db" p-id="874"></path></svg>