<?xml version="1.0" standalone="no"?><!DOCTYPE svg PUBLIC "-//W3C//DTD SVG 1.1//EN" "http://www.w3.org/Graphics/SVG/1.1/DTD/svg11.dtd"><svg t="1534917716815" class="icon" style="" viewBox="0 0 1026 1024" version="1.1" xmlns="http://www.w3.org/2000/svg" p-id="3069" xmlns:xlink="http://www.w3.org/1999/xlink" width="200.390625" height="200"><defs><style type="text/css"></style></defs><path d="M 983.816 313.313 a 511.939 511.939 0 1 0 40.1421 198.72 a 508.612 508.612 0 0 0 -40.1421 -198.72 Z M 513.443 964.435 C 264.005 964.435 61.0567 761.487 61.0567 512.034 S 264.005 59.6468 513.443 59.6468 s 452.401 202.948 452.401 452.387 s -202.948 452.401 -452.401 452.401 Z" fill="#bfbfbf" p-id="3070"></path><path d="M 668.549 448.341 l -160.525 -92.6769 a 73.5575 73.5575 0 0 0 -110.329 63.6927 v 185.354 A 73.3977 73.3977 0 0 0 508.024 668.389 l 160.525 -92.6769 a 73.5575 73.5575 0 0 0 0 -127.4 Z m -21.7927 89.655 L 486.232 630.615 a 29.9722 29.9722 0 0 1 -44.951 -25.9623 V 419.357 a 29.8995 29.8995 0 0 1 44.951 -25.9478 l 160.525 92.6769 a 29.9722 29.9722 0 0 1 0 51.9101 Z" fill="#bfbfbf" p-id="3071"></path></svg>