<?xml version="1.0" standalone="no"?><!DOCTYPE svg PUBLIC "-//W3C//DTD SVG 1.1//EN" "http://www.w3.org/Graphics/SVG/1.1/DTD/svg11.dtd"><svg t="1534845381697" class="icon" style="" viewBox="0 0 1024 1024" version="1.1" xmlns="http://www.w3.org/2000/svg" p-id="1136" xmlns:xlink="http://www.w3.org/1999/xlink" width="200" height="200"><defs><style type="text/css"></style></defs><path d="M726.20607139 765.97428709l39.93768209-39.99417169 192.9097392 192.9097392-39.8811937 39.93768209z" fill="#707070" p-id="1137"></path><path d="M472.45774029 887.65146969a415.75861817 415.75861817 0 1 1 415.75861816-415.75861938 415.75861817 415.75861817 0 0 1-415.75861816 415.75861938z m0-774.46340547a359.26967606 359.26967606 0 1 0 359.26967606 359.26967607 359.26967606 359.26967606 0 0 0-359.26967606-359.26967607z" fill="#707070" p-id="1138"></path><path d="M261.18909437 471.89285031h-56.48894332a268.32247801 268.32247801 0 0 1 267.75758924-267.75758803v56.4889421a211.8335359 211.8335359 0 0 0-211.26864592 211.26864593z" fill="#707070" p-id="1139"></path></svg>