<?xml version="1.0" standalone="no"?><!DOCTYPE svg PUBLIC "-//W3C//DTD SVG 1.1//EN" "http://www.w3.org/Graphics/SVG/1.1/DTD/svg11.dtd"><svg t="1534845377978" class="icon" style="" viewBox="0 0 1024 1024" version="1.1" xmlns="http://www.w3.org/2000/svg" p-id="1002" xmlns:xlink="http://www.w3.org/1999/xlink" width="200" height="200"><defs><style type="text/css"></style></defs><path d="M716.26865778 245.25368889c0 112.26112-21.08984889 153.70012445-128.92046223 203.25831111-101.99153778 46.90033778-203.28675555-90.99719111-203.28675555-203.25831111 0-112.25998222 96.79189333-238.78428445 203.28675555-203.25603556 122.70250667 40.90083555 128.92046222 90.99605333 128.92046223 203.25603556" fill="#31D3FF" p-id="1003"></path><path d="M514.23118222 478.25806222c-128.48355555 0-233.03281778-104.51968-233.03281777-233.00437333 0-128.48355555 104.54926222-233.00323555 233.03281777-233.00323556 128.48469333 0 233.00437333 104.51854222 233.00437333 233.00323556 0 128.48469333-104.51968 233.00437333-233.00437333 233.00437333z m0-406.51434667c-95.68824889 0-173.53955555 77.83651555-173.53955555 173.50997334 0 95.67459555 77.85130667 173.51111111 173.53955555 173.51111111s173.51224889-77.83765333 173.51224889-173.51111111-77.824-173.50997333-173.51224889-173.50997334z" fill="#213847" p-id="1004"></path><path d="M847.13585778 757.88515555c0 186.17571555-73.58236445 167.55598222-259.78652445 167.55598223-186.20529778 0-337.14517333 18.61973333-337.14517333-167.55598223 0-186.19164445 150.93987555-310.34709333 337.14517333-310.34709333 186.20416 0.00113778 259.78652445 124.15658667 259.78652445 310.34709333" fill="#31D3FF" p-id="1005"></path><path d="M424.73016889 955.72423111c-96.12401778 0-177.92568889-5.80835555-229.02328889-56.45653333-32.53475555-32.25941333-48.33735111-78.50439111-48.33735111-141.38254223 0-30.19662222 3.66023111-59.65255111 10.89308444-87.51104 4.096-15.88906667 20.42197333-25.47484445 36.25301334-21.32081777 15.89020445 4.10965333 25.44753778 20.34915555 21.32309333 36.25415111-5.95512889 22.99107555-8.97592889 47.40551111-8.97592889 72.57770666 0 46.20288 10.05112889 78.62158222 30.73479111 99.13116445 40.93041778 40.59477333 128.57002667 39.84042667 229.66272 38.95409778a5638.51946667 5638.51946667 0 0 1 93.88600889 0c101.41240889 0.92842667 188.76188445 1.65546667 229.72074667-38.97002667 20.6848-20.49479111 30.73479111-52.92714667 30.73479111-99.11523556 0-162.60323555-129.26862222-280.62947555-307.40024889-280.62947555-61.75744 0-120.46563555 14.84458667-169.79057778 42.93404445-14.26318222 8.10552889-32.41984 3.15278222-40.58225777-11.13998223-8.13397333-14.27683555-3.13571555-32.43349333 11.12632888-40.56746667 58.30200889-33.17418667 127.20696889-50.71985778 199.24764445-50.71985777 209.15541333 0 366.89351111 146.21923555 366.89351111 340.12273777 0 62.87815111-15.80487111 109.12312889-48.33735111 141.3688889-58.59328 58.05397333-157.62204445 57.21088-272.10410667 56.20849777-30.38549333-0.26168889-62.54364445-0.26168889-92.86997333 0-14.61475555 0.13198222-28.99399111 0.26168889-43.05464889 0.26168889z" fill="#213847" p-id="1006"></path><path d="M214.61674667 636.40234667a29.61635555 29.61635555 0 0 1-14.72625778-3.92192c-14.26318222-8.13397333-19.23072-26.30314667-11.06830222-40.57998222 13.53614222-23.7056 30.18183111-45.75459555 49.44213333-65.49390223 11.53251555-11.73504 30.35591111-11.95349333 42.06250667-0.49379555 11.76462222 11.47335111 11.99672889 30.29788445 0.52224 42.06364444-15.74456889 16.12344889-29.33987555 34.10488889-40.37859556 53.43573334-5.48977778 9.60056889-15.51018667 14.99022222-25.85372444 14.99022222zM512.22641778 774.48647111c-38.95409778 0-70.64689778-31.69166222-70.64689778-70.64689778v-70.64803555c0-38.95523555 31.6928-70.64803555 70.64689778-70.64803556 38.95523555 0 70.64917333 31.69166222 70.64917333 70.64803556v70.64803555c0 38.95523555-31.6928 70.64689778-70.64917333 70.64689778z m0-152.44970666c-6.15765333 0-11.15363555 5.01191111-11.15363556 11.1559111v70.64803556c0 6.14286222 4.99712 11.15477333 11.15363556 11.15477334 6.15879111 0 11.15591111-5.01077333 11.15591111-11.15477334v-70.64803556c0-6.144-4.99712-11.15591111-11.15591111-11.1559111z" fill="#213847" p-id="1007"></path><path d="M513.21400889 955.20085333c-16.26680889 0-29.5424-13.08558222-29.74492444-29.39676444l-1.97632-168.81891556c-0.20252445-16.42723555 12.98659555-29.90535111 29.39790222-30.09649778h0.34816c16.26794667 0 29.5424 13.08785778 29.74606222 29.39904l1.97518222 168.81891556c0.20366222 16.42723555-12.98432 29.90648889-29.39790222 30.09422222h-0.34816z" fill="#213847" p-id="1008"></path></svg>