<?xml version="1.0" standalone="no"?><!DOCTYPE svg PUBLIC "-//W3C//DTD SVG 1.1//EN" "http://www.w3.org/Graphics/SVG/1.1/DTD/svg11.dtd"><svg t="1534947128840" class="icon" style="" viewBox="0 0 1024 1024" version="1.1" xmlns="http://www.w3.org/2000/svg" p-id="2816" xmlns:xlink="http://www.w3.org/1999/xlink" width="200" height="200"><defs><style type="text/css"></style></defs><path d="M852.823512 368.339336l-0.140891-0.347143c-5.708255-13.319262-18.689089-21.926672-33.067211-21.926672-4.425713 0-8.832545 0.811938-13.102843 2.414025l-0.424124 0.168488c-17.792908 7.625532-26.362553 27.903637-19.512647 46.168601l0.106031 0.273067c15.264136 37.31427 22.143092 76.881339 20.449498 117.546485-1.665997 34.981583-9.946599 71.039455-23.941265 104.27806l-0.071172 0.167035c-12.588664 31.478196-33.799262 62.6688-61.336874 90.206412-26.995835 26.997288-57.73036 47.669016-93.958173 63.196051-35.132641 15.056431-74.355472 23.016034-113.428698 23.017486-29.810746 0.001452-58.95916-4.430071-86.855534-13.184181l36.771041-39.838684 0.332618-0.377645c12.46375-14.95621 11.442655-36.649033-2.373356-50.463592l-0.663784-0.605685a37.556834 37.556834 0 0 0-23.99646-8.719251c-9.917549 0-19.316562 3.939132-26.468584 11.094059l-79.545192 84.838037c-6.923983 6.983535-10.736749 16.012165-10.736749 25.443132 0 9.446945 3.825838 18.490099 10.771609 25.479444l77.591603 81.11823 0.153963 0.158321c7.458496 7.459949 17.097169 11.738962 26.443892 11.738961 10.932834 0 19.83074-3.358139 26.44825-9.974195 7.000965-6.99806 10.857305-16.078979 10.857305-25.565141 0-7.339393-2.309447-14.434769-6.595722-20.511954a381.488658 381.488658 0 0 0 48.717707 3.099597c52.269027 0 98.796391-10.395416 138.296647-30.898656 44.589753-17.907654 83.032601-43.366763 117.507268-77.81819 31.996732-30.342355 58.257611-68.793918 78.044778-114.285662 17.41381-38.33827 27.200635-81.723915 29.090314-128.997855 1.760409-49.138928-6.774377-98.561089-25.363245-146.890985zM513.485889 214.177226c23.694343 0 46.987801 2.676925 69.46206 7.974127l-32.422309 33.350446c-6.96901 6.99225-10.803563 16.048477-10.803563 25.508493 0 9.19276 3.622491 18.002065 10.21676 24.908619 5.10838 6.958843 13.834894 10.627813 25.321123 10.627812 7.855024 0 16.244562-2.936919 24.928953-8.729418l0.867132-0.576635 80.153782-81.933073 0.531608-0.588255c11.826111-14.193657 11.826111-35.603245 0-49.796902l-0.18737-0.223683-79.442065-84.739268c-6.507121-7.656034-16.580085-12.216828-27.008908-12.216828-9.195665 0-17.771121 3.445288-24.204164 9.712749-7.231909 6.196289-11.625668 15.378882-12.074485 25.270286-0.45027 9.933526 3.058928 19.184386 9.888499 26.070605l2.45179 2.583966a357.61566 357.61566 0 0 0-35.912624-1.806888c-97.127489 0-188.630967 38.015818-257.575943 106.960794-36.920647 36.023013-65.023274 78.556051-83.522088 126.424057-18.376806 47.552817-26.317526 97.852278-23.601385 149.408136 1.83739 42.310809 11.265452 84.409555 27.26745 121.741254l0.245469 0.530156c6.79326 13.586519 19.042043 21.383444 33.60463 21.383444h11.172494l2.098837-1.051597c18.569986-9.282814 26.198423-28.446865 18.985395-47.686446l-0.222229-0.547586c-13.07815-29.421481-20.308607-61.172743-22.098066-96.979336-3.427858-82.274406 27.661072-162.526956 85.295569-220.190502 57.634496-55.863921 129.06467-85.388528 206.583648-85.388527z" fill="#009AF9" p-id="2817"></path><path d="M517.015421 367.261594c-19.740687 0-36.418088 16.677401-36.418088 36.418088v199.446151c0 19.742139 16.677401 36.41954 36.418088 36.41954 20.423353 0 36.418088-15.99764 36.418088-36.41954V403.679682c0-19.740687-16.675949-36.418088-36.418088-36.418088z" fill="#009AF9" p-id="2818"></path></svg>