<?xml version="1.0" standalone="no"?><!DOCTYPE svg PUBLIC "-//W3C//DTD SVG 1.1//EN" "http://www.w3.org/Graphics/SVG/1.1/DTD/svg11.dtd"><svg t="1534947074225" class="icon" style="" viewBox="0 0 1024 1024" version="1.1" xmlns="http://www.w3.org/2000/svg" p-id="2185" xmlns:xlink="http://www.w3.org/1999/xlink" width="200" height="200"><defs><style type="text/css"></style></defs><path d="M336.457143 336.457143m-336.457143 0a336.457143 336.457143 0 1 0 672.914286 0 336.457143 336.457143 0 1 0-672.914286 0Z" fill="#8CF6FB" p-id="2186"></path><path d="M512 1024C229.668571 1024 0 794.331429 0 512S229.668571 0 512 0s512 229.668571 512 512-229.668571 512-512 512z m0-950.857143C269.165714 73.142857 73.142857 269.165714 73.142857 512s196.022857 438.857143 438.857143 438.857143 438.857143-196.022857 438.857143-438.857143S754.834286 73.142857 512 73.142857z" fill="#3C2DCB" p-id="2187"></path><path d="M640.731429 340.845714L469.577143 512l171.154286 171.154286c14.628571 14.628571 14.628571 38.034286 0 51.2-14.628571 14.628571-38.034286 14.628571-51.2 0L392.045714 538.331429c-14.628571-14.628571-14.628571-38.034286 0-51.2l196.022857-196.022858c14.628571-14.628571 38.034286-14.628571 51.2 0 14.628571 13.165714 14.628571 36.571429 1.462858 49.737143z" fill="#D098FF" p-id="2188"></path></svg>