<?xml version="1.0" standalone="no"?><!DOCTYPE svg PUBLIC "-//W3C//DTD SVG 1.1//EN" "http://www.w3.org/Graphics/SVG/1.1/DTD/svg11.dtd"><svg t="1535868309226" class="icon" style="" viewBox="0 0 1024 1024" version="1.1" xmlns="http://www.w3.org/2000/svg" p-id="1066" xmlns:xlink="http://www.w3.org/1999/xlink" width="200" height="200"><defs><style type="text/css"></style></defs><path d="M137.978131 210.579189m-34.313933 0a34.313933 34.313933 0 1 0 68.627865 0 34.313933 34.313933 0 1 0-68.627865 0Z" fill="#5282C3" p-id="1067"></path><path d="M137.978131 515.792593m-34.313933 0a34.313933 34.313933 0 1 0 68.627865 0 34.313933 34.313933 0 1 0-68.627865 0Z" fill="#5282C3" p-id="1068"></path><path d="M137.978131 821.005996m-34.313933 0a34.313933 34.313933 0 1 0 68.627865 0 34.313933 34.313933 0 1 0-68.627865 0Z" fill="#5282C3" p-id="1069"></path><path d="M269.815873 188.184832h650.15873v43.343916h-650.15873zM269.815873 495.204233h650.15873v43.343915h-650.15873zM269.815873 798.61164h650.15873v43.343916h-650.15873z" fill="#5282C3" p-id="1070"></path></svg>