<?xml version="1.0" standalone="no"?><!DOCTYPE svg PUBLIC "-//W3C//DTD SVG 1.1//EN" "http://www.w3.org/Graphics/SVG/1.1/DTD/svg11.dtd"><svg t="1535030319973" class="icon" style="" viewBox="0 0 1024 1024" version="1.1" xmlns="http://www.w3.org/2000/svg" p-id="2764" xmlns:xlink="http://www.w3.org/1999/xlink" width="300" height="300"><defs><style type="text/css"></style></defs><path d="M619.586783 907.130435h-205.890783C197.921391 907.130435 22.26087 737.146435 22.26087 528.11687 22.26087 319.065043 197.810087 149.103304 413.696 149.103304h206.002087a396.243478 396.243478 0 0 1 228.374261 71.68c9.171478 6.455652 11.308522 18.899478 4.630261 27.89287a21.014261 21.014261 0 0 1-28.805566 4.496696 354.838261 354.838261 0 0 0-204.354782-64.066783h-205.890783c-193.046261 0-350.141217 152.108522-350.141217 339.033043s157.094957 339.033043 350.141217 339.033044h206.002087c193.024 0 350.141217-152.108522 350.141218-339.033044 0-11.063652 9.171478-19.945739 20.591304-19.945739 11.419826 0 20.591304 8.882087 20.591304 19.945739 0.044522 209.007304-175.504696 378.991304-391.390608 378.991305z m0 0" fill="#1296db" p-id="2765"></path><path d="M713.594435 303.393391a20.301913 20.301913 0 0 1-20.346435-17.408 20.146087 20.146087 0 0 1 17.853217-22.372174l136.036174-17.051826-17.608348-131.717565a20.123826 20.123826 0 0 1 17.853218-22.349913 20.502261 20.502261 0 0 1 23.084522 17.296696l20.23513 151.529739a20.123826 20.123826 0 0 1-17.853217 22.349913l-156.493913 19.589565c-0.957217 0.022261-1.914435 0.133565-2.760348 0.133565z m-175.883131 84.257392a166.555826 166.555826 0 0 1-38.088347 30.875826c-15.582609 8.882087-30.341565 15.09287-44.27687 18.788174v35.149913c30.096696-8.525913 54.873043-22.594783 74.262261-41.939479v262.856348h36.307478V387.650783h-28.204522z m0 0" fill="#1296db" p-id="2766"></path></svg>