<?xml version="1.0" standalone="no"?><!DOCTYPE svg PUBLIC "-//W3C//DTD SVG 1.1//EN" "http://www.w3.org/Graphics/SVG/1.1/DTD/svg11.dtd"><svg t="1534947673238" class="icon" style="" viewBox="0 0 1024 1024" version="1.1" xmlns="http://www.w3.org/2000/svg" p-id="3810" xmlns:xlink="http://www.w3.org/1999/xlink" width="300" height="300"><defs><style type="text/css"></style></defs><path d="M575.78496 192.512l119.35744 241.84832 266.91584 38.79936L768.9216 661.41184l45.59872 265.84064-238.73536-125.52192-238.73536 125.52192 45.58848-265.84064-193.1264-188.2624 266.89536-38.78912z" fill="#CEF7FF" p-id="3811"></path><path d="M803.39968 945.9712L511.08864 792.27904 218.76736 945.9712l55.81824-325.49888L38.10304 389.9392l326.81984-47.49312 146.16576-296.1408 146.14528 296.1408L984.064 389.9392 747.5712 620.46208l55.82848 325.50912zM82.11456 404.24448l214.4768 209.08032-50.61632 295.20896 265.12384-139.38688 265.1136 139.38688-50.62656-295.20896 214.4768-209.08032-296.40704-43.06944-132.56704-268.5952-132.56704 268.5952-296.40704 43.06944z" fill="#4AD8F9" p-id="3812"></path></svg>