<?xml version="1.0" standalone="no"?><!DOCTYPE svg PUBLIC "-//W3C//DTD SVG 1.1//EN" "http://www.w3.org/Graphics/SVG/1.1/DTD/svg11.dtd"><svg t="1534947678759" class="icon" style="" viewBox="0 0 1024 1024" version="1.1" xmlns="http://www.w3.org/2000/svg" p-id="3944" xmlns:xlink="http://www.w3.org/1999/xlink" width="300" height="300"><defs><style type="text/css"></style></defs><path d="M480.03584 876.31872c-25.6 10.98752-48.11776-5.39648-45.59872-33.14688l15.89248-174.91456-115.51744-132.14208c-18.31936-20.95616-9.59488-47.47264 17.41824-53.62176l171.01312-38.91712 89.79456-150.85056c14.25408-23.95648 42.12736-23.936 56.36608 0l89.79456 150.85056 171.01312 38.91712c27.1616 6.17472 35.7376 32.6656 17.41824 53.62176l-115.52256 132.14208 15.98464 174.976c2.52928 27.76576-19.9936 44.1344-45.59872 33.13152l-161.26976-69.22752-161.18784 69.18144z" fill="#1296db" p-id="3945"></path><path d="M949.888 457.25696c26.07104-29.824 13.86496-67.52256-24.79104-76.30848L681.728 325.54496l-127.79008-214.67648c-20.26496-34.06848-59.92448-34.09408-80.21504 0L345.94304 325.54496 102.56896 380.928c-38.44096 8.74496-50.85696 46.50496-24.78592 76.30848L242.176 645.28896l-22.61504 248.91904c-3.584 39.46496 28.46208 62.80192 64.896 47.14496L522.24 839.3216a21.32992 21.32992 0 0 0 10.79808-28.17024 21.3248 21.3248 0 0 0-27.61216-11.03872L267.6224 902.1952c-6.70208 2.88256-6.23104 3.22048-5.57056-4.10112l24.27904-267.08992-176.41984-201.82016c-4.75648-5.46304-4.90496-5.03296 2.13504-6.63552L373.248 363.11552l137.15456-230.4c3.73248-6.29248 3.13856-6.29248 6.87104 0l137.16992 230.4 261.21216 59.43296c7.12192 1.61792 6.94784 1.08544 2.12992 6.61504l-176.42496 201.81504 24.25344 267.09504a21.32992 21.32992 0 1 0 42.496-3.84l-22.62016-248.91904 164.39808-188.0576z" fill="#1296db" p-id="3946"></path></svg>