<?xml version="1.0" standalone="no"?><!DOCTYPE svg PUBLIC "-//W3C//DTD SVG 1.1//EN" "http://www.w3.org/Graphics/SVG/1.1/DTD/svg11.dtd"><svg t="1534948146568" class="icon" style="" viewBox="0 0 1024 1024" version="1.1" xmlns="http://www.w3.org/2000/svg" p-id="9403" xmlns:xlink="http://www.w3.org/1999/xlink" width="300" height="300"><defs><style type="text/css"></style></defs><path d="M512 1024C230.4 1024 0 793.6 0 512S230.4 0 512 0s512 230.4 512 512-230.4 512-512 512z m0-977.454545C256 46.545455 46.545455 256 46.545455 512s209.454545 465.454545 465.454545 465.454545 465.454545-209.454545 465.454545-465.454545S768 46.545455 512 46.545455z" fill="#54BFE6" p-id="9404"></path><path d="M674.909091 744.727273c-13.963636 0-23.272727-9.309091-23.272727-23.272728V279.272727c0-13.963636 9.309091-23.272727 23.272727-23.272727s23.272727 9.309091 23.272727 23.272727v442.181818c0 13.963636-9.309091 23.272727-23.272727 23.272728zM470.109091 514.327273l-181.527273 181.527272c-9.309091 9.309091-9.309091 23.272727 0 32.581819 9.309091 9.309091 23.272727 9.309091 32.581818 0l197.818182-197.818182c4.654545-4.654545 6.981818-11.636364 6.981818-16.290909 0-6.981818-2.327273-11.636364-6.981818-16.290909l-197.818182-197.818182c-9.309091-9.309091-23.272727-9.309091-32.581818 0-9.309091 9.309091-9.309091 23.272727 0 32.581818l181.527273 181.527273z" fill="#54BFE6" p-id="9405"></path></svg>