<?xml version="1.0" standalone="no"?><!DOCTYPE svg PUBLIC "-//W3C//DTD SVG 1.1//EN" "http://www.w3.org/Graphics/SVG/1.1/DTD/svg11.dtd"><svg t="1534947556556" class="icon" style="" viewBox="0 0 1024 1024" version="1.1" xmlns="http://www.w3.org/2000/svg" p-id="8751" xmlns:xlink="http://www.w3.org/1999/xlink" width="300" height="300"><defs><style type="text/css"></style></defs><path d="M512 0a512 512 0 1 0 512 512A512 512 0 0 0 512 0z m0 972.53944a460.53944 460.53944 0 1 1 460.53944-460.53944 460.53944 460.53944 0 0 1-460.53944 460.53944z" fill="#3B87DD" p-id="8752"></path><path d="M560.854962 271.633588m54.717557 0l20.844784 0q54.717557 0 54.717557 54.717557l0 411.684478q0 54.717557-54.717557 54.717558l-20.844784 0q-54.717557 0-54.717557-54.717558l0-411.684478q0-54.717557 54.717557-54.717557Z" fill="#3B87DD" p-id="8753"></path><path d="M332.86514 271.633588m54.717557 0l20.844784 0q54.717557 0 54.717557 54.717557l0 411.684478q0 54.717557-54.717557 54.717558l-20.844784 0q-54.717557 0-54.717557-54.717558l0-411.684478q0-54.717557 54.717557-54.717557Z" fill="#3B87DD" p-id="8754"></path></svg>