<?xml version="1.0" standalone="no"?><!DOCTYPE svg PUBLIC "-//W3C//DTD SVG 1.1//EN" "http://www.w3.org/Graphics/SVG/1.1/DTD/svg11.dtd"><svg t="1534948151987" class="icon" style="" viewBox="0 0 1024 1024" version="1.1" xmlns="http://www.w3.org/2000/svg" p-id="5413" xmlns:xlink="http://www.w3.org/1999/xlink" width="300" height="300"><defs><style type="text/css"></style></defs><path d="M512 1024C230.4 1024 0 793.6 0 512S230.4 0 512 0s512 230.4 512 512-230.4 512-512 512z m0-977.454545C256 46.545455 46.545455 256 46.545455 512s209.454545 465.454545 465.454545 465.454545 465.454545-209.454545 465.454545-465.454545S768 46.545455 512 46.545455z" fill="#54BFE6" p-id="5414"></path><path d="M349.090909 279.272727c13.963636 0 23.272727 9.309091 23.272727 23.272728v442.181818c0 13.963636-9.309091 23.272727-23.272727 23.272727s-23.272727-9.309091-23.272727-23.272727V302.545455c0-13.963636 9.309091-23.272727 23.272727-23.272728zM553.890909 509.672727l181.527273-181.527272c9.309091-9.309091 9.309091-23.272727 0-32.581819-9.309091-9.309091-23.272727-9.309091-32.581818 0l-197.818182 197.818182c-4.654545 4.654545-6.981818 11.636364-6.981818 16.290909 0 6.981818 2.327273 11.636364 6.981818 16.290909l197.818182 197.818182c9.309091 9.309091 23.272727 9.309091 32.581818 0 9.309091-9.309091 9.309091-23.272727 0-32.581818l-181.527273-181.527273z" fill="#54BFE6" p-id="5415"></path><path d="M512 1024C230.4 1024 0 793.6 0 512S230.4 0 512 0s512 230.4 512 512-230.4 512-512 512z m0-977.454545C256 46.545455 46.545455 256 46.545455 512s209.454545 465.454545 465.454545 465.454545 465.454545-209.454545 465.454545-465.454545S768 46.545455 512 46.545455z" fill="#54BFE6" p-id="5416"></path><path d="M349.090909 279.272727c13.963636 0 23.272727 9.309091 23.272727 23.272728v442.181818c0 13.963636-9.309091 23.272727-23.272727 23.272727s-23.272727-9.309091-23.272727-23.272727V302.545455c0-13.963636 9.309091-23.272727 23.272727-23.272728zM553.890909 509.672727l181.527273-181.527272c9.309091-9.309091 9.309091-23.272727 0-32.581819-9.309091-9.309091-23.272727-9.309091-32.581818 0l-197.818182 197.818182c-4.654545 4.654545-6.981818 11.636364-6.981818 16.290909 0 6.981818 2.327273 11.636364 6.981818 16.290909l197.818182 197.818182c9.309091 9.309091 23.272727 9.309091 32.581818 0 9.309091-9.309091 9.309091-23.272727 0-32.581818l-181.527273-181.527273z" fill="#54BFE6" p-id="5417"></path></svg>